<?xml version="1.0" standalone="no"?>
<!DOCTYPE svg PUBLIC "-//W3C//DTD SVG 20010904//EN"
 "http://www.w3.org/TR/2001/REC-SVG-20010904/DTD/svg10.dtd">
<svg version="1.0" xmlns="http://www.w3.org/2000/svg"
 width="274.000000pt" height="274.000000pt" viewBox="0 0 274.000000 274.000000"
 preserveAspectRatio="xMidYMid meet">
<metadata>
Created by potrace 1.11, written by Peter Selinger 2001-2013
</metadata>
<g transform="translate(0.000000,274.000000) scale(0.100000,-0.100000)"
fill="#000000" stroke="none">
<path d="M780 2075 l0 -35 48 0 c66 0 120 -17 133 -42 7 -14 14 -102 17 -231
l5 -209 48 -49 49 -50 2 186 3 187 249 -519 c137 -285 265 -553 284 -595 28
-62 40 -78 57 -78 18 0 29 19 70 118 47 115 156 348 398 853 l122 255 3 -485
c2 -267 0 -514 -3 -549 -8 -78 -24 -91 -124 -99 l-71 -6 0 -31 0 -31 298 0
297 1 3 31 3 30 -76 6 c-95 8 -112 18 -122 65 -13 62 -9 1162 4 1194 14 32 61
48 141 48 l52 0 0 35 0 35 -210 0 c-135 0 -210 -4 -210 -10 0 -19 -107 -253
-318 -693 -170 -355 -212 -435 -220 -420 -30 56 -465 962 -497 1036 l-39 87
-198 0 -198 0 0 -35z"/>
<path d="M474 1635 c-93 -20 -171 -63 -239 -130 -103 -103 -145 -210 -145
-370 1 -324 191 -519 490 -502 301 17 510 235 510 532 0 239 -141 424 -357
470 -83 18 -178 18 -259 0z m232 -100 c94 -59 154 -178 176 -352 22 -174 -15
-326 -99 -404 -57 -52 -98 -69 -170 -69 -147 0 -253 109 -305 311 -28 114 -23
309 10 383 34 75 66 111 124 141 47 23 63 26 134 23 69 -3 87 -7 130 -33z"/>
<path d="M1066 853 c-10 -32 -114 -124 -178 -158 l-56 -30 224 -1 224 -1 0 32
0 32 -71 6 c-93 8 -111 21 -125 88 -8 43 -12 50 -18 32z"/>
</g>
</svg>
